GRF
version=1
nRows=15
nColumns=46
inDegrees=no
endheader
time	plate1_ground_force_vx	plate1_ground_force_vy	plate1_ground_force_vz	plate1_ground_force_px	plate1_ground_force_py	plate1_ground_force_pz	plate1_ground_torque_x	plate1_ground_torque_y	plate1_ground_torque_z	plate2_ground_force_vx	plate2_ground_force_vy	plate2_ground_force_vz	plate2_ground_force_px	plate2_ground_force_py	plate2_ground_force_pz	plate2_ground_torque_x	plate2_ground_torque_y	plate2_ground_torque_z	plate3_ground_force_vx	plate3_ground_force_vy	plate3_ground_force_vz	plate3_ground_force_px	plate3_ground_force_py	plate3_ground_force_pz	plate3_ground_torque_x	plate3_ground_torque_y	plate3_ground_torque_z	plate4_ground_force_vx	plate4_ground_force_vy	plate4_ground_force_vz	plate4_ground_force_px	plate4_ground_force_py	plate4_ground_force_pz	plate4_ground_torque_x	plate4_ground_torque_y	plate4_ground_torque_z	plate5_ground_force_vx	plate5_ground_force_vy	plate5_ground_force_vz	plate5_ground_force_px	plate5_ground_force_py	plate5_ground_force_pz	plate5_ground_torque_x	plate5_ground_torque_y	plate5_ground_torque_z
      0.61000000	     73.01122823	    620.69531064	    -16.84410436	     -0.86114556	      0.00000000	      0.21786409	      0.00000000	     -3.50376817	     -0.00000000	      0.00000000	      0.00000000	      0.00000000	     -0.30468003	      0.00000000	      0.17319468	      0.00000000	      0.00000000	      0.00000000	      0.00000000	      0.00000000	      0.00000000	      0.00000000	      0.00000000	      0.00000000	      0.00000000	      0.00000000	      0.00000000	      0.00000000	      0.00000000	      0.00000000	      0.00000000	      0.00000000	      0.00000000	      0.00000000	      0.00000000	      0.00000000	      0.00000000	      0.00000000	      0.00000000	      0.00000000	      0.00000000	      0.00000000	      0.00000000	      0.00000000	      0.00000000
      0.62000000	     81.93120428	    622.29279328	    -16.20105921	     -0.85985565	      0.00000000	      0.21742187	      0.00000000	     -3.56563567	     -0.00000000	      0.00000000	      0.00000000	      0.00000000	     -0.30468003	      0.00000000	      0.17319468	      0.00000000	      0.00000000	      0.00000000	      0.00000000	      0.00000000	      0.00000000	      0.00000000	      0.00000000	      0.00000000	      0.00000000	      0.00000000	      0.00000000	      0.00000000	      0.00000000	      0.00000000	      0.00000000	      0.00000000	      0.00000000	      0.00000000	      0.00000000	      0.00000000	      0.00000000	      0.00000000	      0.00000000	      0.00000000	      0.00000000	      0.00000000	      0.00000000	      0.00000000	      0.00000000
      0.63000000	     90.37036975	    617.13732346	    -15.11499554	     -0.85867488	      0.00000000	      0.21699736	      0.00000000	     -3.58130847	     -0.00000000	      0.00000000	      0.00000000	      0.00000000	     -0.30468003	      0.00000000	      0.17319468	      0.00000000	      0.00000000	      0.00000000	      0.00000000	      0.00000000	      0.00000000	      0.00000000	      0.00000000	      0.00000000	      0.00000000	      0.00000000	      0.00000000	      0.00000000	      0.00000000	      0.00000000	      0.00000000	      0.00000000	      0.00000000	      0.00000000	      0.00000000	      0.00000000	      0.00000000	      0.00000000	      0.00000000	      0.00000000	      0.00000000	      0.00000000	      0.00000000	      0.00000000	      0.00000000
      0.64000000	     97.97081630	    604.61995622	    -13.64212153	     -0.85758220	      0.00000000	      0.21659743	      0.00000000	     -3.54691851	     -0.00000000	     -9.46066776	     71.06161784	     -3.79201669	     -0.31595129	      0.00000000	      0.17068362	      0.00000000	      0.00738001	     -0.00000000	      0.00000000	      0.00000000	      0.00000000	      0.00000000	      0.00000000	      0.00000000	      0.00000000	      0.00000000	      0.00000000	      0.00000000	      0.00000000	      0.00000000	      0.00000000	      0.00000000	      0.00000000	      0.00000000	      0.00000000	      0.00000000	      0.00000000	      0.00000000	      0.00000000	      0.00000000	      0.00000000	      0.00000000	      0.00000000	      0.00000000	      0.00000000
      0.65000000	    104.31209896	    584.22016533	    -11.86338395	     -0.85657015	      0.00000000	      0.21623206	      0.00000000	     -3.46034959	     -0.00000000	    -15.06579752	    102.06385172	     -5.09557606	     -0.32676560	      0.00000000	      0.16814178	      0.00000000	      0.01811339	     -0.00000000	      0.00000000	      0.00000000	      0.00000000	      0.00000000	      0.00000000	      0.00000000	      0.00000000	      0.00000000	      0.00000000	      0.00000000	      0.00000000	      0.00000000	      0.00000000	      0.00000000	      0.00000000	      0.00000000	      0.00000000	      0.00000000	      0.00000000	      0.00000000	      0.00000000	      0.00000000	      0.00000000	      0.00000000	      0.00000000	      0.00000000	      0.00000000
      0.66000000	    108.90372396	    555.55962118	     -9.88398017	     -0.85563956	      0.00000000	      0.21592057	      0.00000000	     -3.32145113	     -0.00000000	    -22.36082668	    137.66256338	     -6.21272814	     -0.33327061	      0.00000000	      0.16635551	      0.00000000	      0.03401585	     -0.00000000	      0.00000000	      0.00000000	      0.00000000	      0.00000000	      0.00000000	      0.00000000	      0.00000000	      0.00000000	      0.00000000	      0.00000000	      0.00000000	      0.00000000	      0.00000000	      0.00000000	      0.00000000	      0.00000000	      0.00000000	      0.00000000	      0.00000000	      0.00000000	      0.00000000	      0.00000000	      0.00000000	      0.00000000	      0.00000000	      0.00000000	      0.00000000
      0.67000000	    111.20134112	    518.50887645	     -7.82847523	     -0.85479225	      0.00000000	      0.21569320	     -0.00000000	     -3.13192477	     -0.00000000	    -31.13043137	    175.90557134	     -6.83112563	     -0.33574684	      0.00000000	      0.16522308	      0.00000000	      0.05433199	      0.00000000	      0.00000000	      0.00000000	      0.00000000	      0.00000000	      0.00000000	      0.00000000	      0.00000000	      0.00000000	      0.00000000	      0.00000000	      0.00000000	      0.00000000	      0.00000000	      0.00000000	      0.00000000	      0.00000000	      0.00000000	      0.00000000	      0.00000000	      0.00000000	      0.00000000	      0.00000000	      0.00000000	      0.00000000	      0.00000000	      0.00000000	      0.00000000
      0.68000000	    110.66297739	    473.35155659	     -5.82916324	     -0.85402636	      0.00000000	      0.21558170	     -0.00000000	     -2.89502657	      0.00000000	    -40.93671265	    215.01832537	     -6.68787002	     -0.33506653	      0.00000000	      0.16454232	      0.00000000	      0.07717500	      0.00000000	      0.00000000	      0.00000000	      0.00000000	      0.00000000	      0.00000000	      0.00000000	      0.00000000	      0.00000000	      0.00000000	      0.00000000	      0.00000000	      0.00000000	      0.00000000	      0.00000000	      0.00000000	      0.00000000	      0.00000000	      0.00000000	      0.00000000	      0.00000000	      0.00000000	      0.00000000	      0.00000000	      0.00000000	      0.00000000	      0.00000000	      0.00000000
      0.69000000	    106.85503122	    420.98207830	     -4.00953434	     -0.85334029	      0.00000000	      0.21559567	     -0.00000000	     -2.61556017	      0.00000000	    -51.21185575	    253.93137205	     -5.66479238	     -0.33223374	      0.00000000	      0.16412049	      0.00000000	      0.10027149	      0.00000000	      0.00000000	      0.00000000	      0.00000000	      0.00000000	      0.00000000	      0.00000000	      0.00000000	      0.00000000	      0.00000000	      0.00000000	      0.00000000	      0.00000000	      0.00000000	      0.00000000	      0.00000000	      0.00000000	      0.00000000	      0.00000000	      0.00000000	      0.00000000	      0.00000000	      0.00000000	      0.00000000	      0.00000000	      0.00000000	      0.00000000	      0.00000000
      0.70000000	     99.59783027	    363.07361413	     -2.46741640	     -0.85274749	      0.00000000	      0.21569031	     -0.00000000	     -2.30052400	      0.00000000	    -61.35755482	    292.36472116	     -3.83731840	     -0.32811084	      0.00000000	      0.16383602	      0.00000000	      0.12190453	      0.00000000	      0.00000000	      0.00000000	      0.00000000	      0.00000000	      0.00000000	      0.00000000	      0.00000000	      0.00000000	      0.00000000	      0.00000000	      0.00000000	      0.00000000	      0.00000000	      0.00000000	      0.00000000	      0.00000000	      0.00000000	      0.00000000	      0.00000000	      0.00000000	      0.00000000	      0.00000000	      0.00000000	      0.00000000	      0.00000000	      0.00000000	      0.00000000
      0.71000000	     89.11002932	    302.12170546	     -1.26232902	     -0.85229375	      0.00000000	      0.21574512	     -0.00000000	     -1.96021104	      0.00000000	    -70.80575159	    330.45509229	     -1.45192350	     -0.32334055	      0.00000000	      0.16364560	      0.00000000	      0.14134939	      0.00000000	      0.00000000	      0.00000000	      0.00000000	      0.00000000	      0.00000000	      0.00000000	      0.00000000	      0.00000000	      0.00000000	      0.00000000	      0.00000000	      0.00000000	      0.00000000	      0.00000000	      0.00000000	      0.00000000	      0.00000000	      0.00000000	      0.00000000	      0.00000000	      0.00000000	      0.00000000	      0.00000000	      0.00000000	      0.00000000	      0.00000000	      0.00000000
      0.72000000	     76.08615275	    241.27413467	     -0.40981013	     -0.85205697	      0.00000000	      0.21558201	     -0.00000000	     -1.60894767	      0.00000000	    -79.03851225	    368.18827143	      1.15648262	     -0.31837912	      0.00000000	      0.16355561	      0.00000000	      0.15836103	      0.00000000	      0.00000000	      0.00000000	      0.00000000	      0.00000000	      0.00000000	      0.00000000	      0.00000000	      0.00000000	      0.00000000	      0.00000000	      0.00000000	      0.00000000	      0.00000000	      0.00000000	      0.00000000	      0.00000000	      0.00000000	      0.00000000	      0.00000000	      0.00000000	      0.00000000	      0.00000000	      0.00000000	      0.00000000	      0.00000000	      0.00000000	      0.00000000
      0.73000000	     61.64552341	    183.91917556	      0.11642690	     -0.85210968	      0.00000000	      0.21504163	      0.00000000	     -1.26450895	      0.00000000	    -85.60216549	    404.98362814	      3.66666128	     -0.31355099	      0.00000000	      0.16358433	      0.00000000	      0.17198528	      0.00000000	      0.00000000	      0.00000000	      0.00000000	      0.00000000	      0.00000000	      0.00000000	      0.00000000	      0.00000000	      0.00000000	      0.00000000	      0.00000000	      0.00000000	      0.00000000	      0.00000000	      0.00000000	      0.00000000	      0.00000000	      0.00000000	      0.00000000	      0.00000000	      0.00000000	      0.00000000	      0.00000000	      0.00000000	      0.00000000	      0.00000000	      0.00000000
      0.74000000	     47.13559078	    133.10949679	      0.37507882	     -0.85244792	      0.00000000	      0.21409958	      0.00000000	     -0.94578771	      0.00000000	    -90.14775641	    439.63859546	      5.84762157	     -0.30907814	      0.00000000	      0.16373471	      0.00000000	      0.17959546	      0.00000000	      0.00000000	      0.00000000	      0.00000000	      0.00000000	      0.00000000	      0.00000000	      0.00000000	      0.00000000	      0.00000000	      0.00000000	      0.00000000	      0.00000000	      0.00000000	      0.00000000	      0.00000000	      0.00000000	      0.00000000	      0.00000000	      0.00000000	      0.00000000	      0.00000000	      0.00000000	      0.00000000	      0.00000000	      0.00000000	      0.00000000	      0.00000000
      0.75000000	     33.84192312	     90.99628188	      0.44254336	     -0.85292631	      0.00000000	      0.21295869	      0.00000000	     -0.66925896	      0.00000000	    -92.49278417	    470.60653419	      7.58529569	     -0.30508276	      0.00000000	      0.16398577	      0.00000000	      0.17705075	      0.00000000	      0.00000000	      0.00000000	      0.00000000	      0.00000000	      0.00000000	      0.00000000	      0.00000000	      0.00000000	      0.00000000	      0.00000000	      0.00000000	      0.00000000	      0.00000000	      0.00000000	      0.00000000	      0.00000000	      0.00000000	      0.00000000	      0.00000000	      0.00000000	      0.00000000	      0.00000000	      0.00000000	      0.00000000	      0.00000000	      0.00000000	      0.00000000
